<?xml version="1.0" encoding="iso-8859-1"?>
<!-- Generator: Adobe Illustrator 16.0.0, SVG Export Plug-In . SVG Version: 6.00 Build 0)  -->
<!DOCTYPE svg PUBLIC "-//W3C//DTD SVG 1.1//EN" "http://www.w3.org/Graphics/SVG/1.1/DTD/svg11.dtd">
<svg version="1.1" id="Capa_1" xmlns="http://www.w3.org/2000/svg" xmlns:xlink="http://www.w3.org/1999/xlink" x="0px" y="0px"
	 width="70.074px" height="70.075px" viewBox="0 0 70.074 70.075" style="enable-background:new 0 0 70.074 70.075;"
	 xml:space="preserve">
<g>
	<path d="M67.679,17.313v-4.172h-4.418v-5.26l-28.335,5.26H2.392v4.172H0v44.879h70.074V17.313H67.679z M4.725,17.313v-1.836h29.142
		v1.836v40.792H4.725V17.313z M47.729,13.141l13.194-2.45v2.45v1.168v1.168v1.836v35.96l-24.72,4.59v-40.55v-1.836v-0.196
		l5.234-0.972L47.729,13.141z M65.344,17.313v40.792H47.729l15.53-2.879V17.315v-1.836h2.085V17.313L65.344,17.313z M39.554,47.305
		l-0.616-2.254l18.477-5.021l0.614,2.253L39.554,47.305z M39.342,53.605l-0.614-2.256l18.477-5.021l0.614,2.254L39.342,53.605z
		 M39.805,23.309l-0.63-2.249l13.436-3.747l4.58-1.278l0.356,1.278l0.267,0.972L39.805,23.309z M39.805,29.271l-0.63-2.25
		l18.016-5.022l0.63,2.249L39.805,29.271z M39.772,35.229l-0.632-2.25l18.055-5.023l0.627,2.25L39.772,35.229z M39.772,41.192
		l-0.632-2.25l18.055-5.021l0.627,2.25L39.772,41.192z M7.97,45.605h22.896v2.336H7.97V45.605z M7.759,51.915h22.896v2.336H7.759
		V51.915z M30.653,35.871H8.182v-2.335h22.471V35.871z M30.653,41.834H8.182v-2.336h22.471V41.834z M11.025,29.835V27.06
		c0.459-0.009,1.006-0.016,1.637-0.009c0.89,0,1.565-0.223,2.03-0.659c0.462-0.439,0.693-1.079,0.693-1.915
		c0-0.798-0.234-1.409-0.693-1.821c-0.465-0.414-1.141-0.624-2.03-0.624h-2.455H9.395v7.806h0.82h0.811V29.835z M11.025,23.372
		h1.358c0.458,0,0.799,0.091,1.029,0.281c0.228,0.185,0.341,0.463,0.341,0.836c0,0.407-0.115,0.71-0.341,0.912
		c-0.229,0.203-0.573,0.303-1.029,0.303h-1.358V23.372z M19.859,29.835c1.119,0,1.967-0.346,2.548-1.042
		c0.58-0.697,0.869-1.713,0.869-3.056c0-1.217-0.279-2.135-0.836-2.768c-0.556-0.633-1.371-0.941-2.445-0.941h-2.527h-0.813v7.806
		h0.813H19.859z M18.28,23.372h1.509c0.618,0,1.083,0.206,1.392,0.613c0.309,0.406,0.463,1.014,0.463,1.821
		c0,0.897-0.167,1.567-0.497,2.017c-0.332,0.444-0.827,0.673-1.488,0.673H18.28V23.372z M25.324,29.835h-0.816v-7.806h5.554v0.689
		v0.698h-3.924v1.771h3.421v0.669v0.675h-3.421v3.303H25.324z"/>
</g>
<g>
</g>
<g>
</g>
<g>
</g>
<g>
</g>
<g>
</g>
<g>
</g>
<g>
</g>
<g>
</g>
<g>
</g>
<g>
</g>
<g>
</g>
<g>
</g>
<g>
</g>
<g>
</g>
<g>
</g>
</svg>
